<?xml version="1.0"?>
<svg xmlns="http://www.w3.org/2000/svg" viewBox="0 0 512 512"><g id="Layer_2" data-name="Layer 2"><g id="Layer_1_copy_7" data-name="Layer 1 copy 7"><g id="_104" data-name="104"><g id="background"><path d="M391.32,40A80.77,80.77,0,0,1,472,120.68V391.32A80.77,80.77,0,0,1,391.32,472H120.68A80.77,80.77,0,0,1,40,391.32V120.68A80.77,80.77,0,0,1,120.68,40H391.32m0-40H120.68A120.68,120.68,0,0,0,0,120.68V391.32A120.68,120.68,0,0,0,120.68,512H391.32A120.68,120.68,0,0,0,512,391.32V120.68A120.68,120.68,0,0,0,391.32,0Z"/></g><path d="M397,252.72v91.64a47.38,47.38,0,0,1-47.32,47.32H333.74a47.38,47.38,0,0,1-47.32-47.32V320.11a33.85,33.85,0,0,0-7.14-20.9l-.06-.07a29.14,29.14,0,0,0-45.89-.72,33.7,33.7,0,0,0-7.75,21.65v24.29a47.38,47.38,0,0,1-47.32,47.32H162.32A47.38,47.38,0,0,1,115,344.36V251.57A47.31,47.31,0,0,1,131.17,216l95.91-83.89a47.23,47.23,0,0,1,63.39,1l91.43,85A47.46,47.46,0,0,1,397,252.72Z"/></g></g></g></svg>
