<svg id="Layer_1" enable-background="new 0 0 479.993 479.993" height="512" viewBox="0 0 479.993 479.993" width="512" xmlns="http://www.w3.org/2000/svg"><path d="m294.727 49.543-21.57 21.1 5.1 29.8c.824 4.86-2.898 9.35-7.89 9.35-2.709 0-1.302.361-30.37-14.98l-26.64 14.06c-5.85 3.088-12.728-1.888-11.62-8.43l5.1-29.8-21.57-21.1c-4.748-4.64-2.088-12.686 4.44-13.64l29.78-4.34 13.33-27.1c2.93-5.946 11.426-5.955 14.36 0l13.33 27.1 29.78 4.34c6.54.956 9.178 9.01 4.44 13.64zm-138.205 40.941-.945-5.51c3.699-3.606 7.844-6.512 6.027-12.103-1.816-5.588-6.915-5.511-11.99-6.249l-2.474-5.013c-2.928-5.934-11.417-5.938-14.348 0l-2.474 5.013c-5.112.743-10.174.657-11.99 6.249-1.816 5.588 2.355 8.523 6.027 12.103l-.945 5.51c-1.118 6.521 5.746 11.514 11.608 8.433l4.947-2.602c5.065 2.664 6.17 3.521 8.669 3.521 4.936 0 8.73-4.446 7.888-9.352zm-70 40-.945-5.51c3.699-3.606 7.844-6.512 6.027-12.103-1.816-5.588-6.915-5.511-11.99-6.249l-2.474-5.013c-2.928-5.934-11.417-5.938-14.348 0l-2.474 5.013c-5.112.743-10.174.657-11.99 6.249-1.816 5.588 2.355 8.523 6.027 12.103l-.945 5.51c-1.118 6.521 5.746 11.514 11.608 8.433l4.947-2.602c5.065 2.664 6.17 3.521 8.669 3.521 4.936 0 8.73-4.446 7.888-9.352zm270.059-40-.945-5.51c3.699-3.606 7.844-6.512 6.027-12.103-1.816-5.588-6.915-5.511-11.99-6.249-2.287-4.635-3.768-9.472-9.647-9.472-5.875 0-7.378 4.873-9.648 9.472l-5.532.804c-6.548.952-9.175 9.024-4.434 13.646l4.003 3.902c-.874 5.094-2.519 9.879 2.238 13.334 4.753 3.454 8.833.394 13.373-1.993 5.065 2.664 6.17 3.521 8.669 3.521 4.934 0 8.727-4.446 7.886-9.352zm70 40-.945-5.51c3.699-3.606 7.844-6.512 6.027-12.103-1.816-5.588-6.915-5.511-11.99-6.249-2.287-4.635-3.768-9.472-9.647-9.472-5.875 0-7.378 4.873-9.648 9.472l-5.532.804c-6.548.952-9.175 9.024-4.434 13.646l4.003 3.902c-.874 5.094-2.519 9.879 2.238 13.334 4.753 3.454 8.833.394 13.373-1.993 5.065 2.664 6.17 3.521 8.669 3.521 4.934 0 8.727-4.446 7.886-9.352zm-304.425 341.281c.137 4.506-3.488 8.228-7.997 8.228h-42.163c-17.673 0-32-14.327-32-32v-160c0-17.673 14.327-32 32-32h42c4.418 0 8 3.59 8 8.008-.009 150.66-.261 193.961.16 207.764zm-27.16-135.772c0-4.418-3.582-8-8-8s-8 3.582-8 8v34c0 4.418 3.582 8 8 8s8-3.582 8-8zm345-48v160c0 17.673-14.327 32-32 32h-42.156c-4.508 0-8.135-3.723-7.997-8.229.423-13.779.162-57.016.153-207.763 0-4.418 3.582-8.008 8-8.008h42c17.674 0 32 14.327 32 32zm-39 48c0-4.418-3.582-8-8-8s-8 3.582-8 8v34c0 4.418 3.582 8 8 8s8-3.582 8-8zm-181 144h40c4.418 0 8-3.582 8-8v-75c0-4.418-3.582-8-8-8h-40c-4.418 0-8 3.582-8 8v75c0 4.418 3.582 8 8 8zm122-306v298c0 4.418-3.582 8-8 8h-42c-4.418 0-8-3.582-8-8v-91c0-4.418-3.582-8-8-8h-72c-4.418 0-8 3.582-8 8v91c0 4.418-3.582 8-8 8h-42c-4.418 0-8-3.582-8-8v-298c0-17.673 14.327-32 32-32h140c17.674 0 32 14.327 32 32zm-62 134c0-4.418-3.582-8-8-8h-64c-4.418 0-8 3.582-8 8s3.582 8 8 8h64c4.419 0 8-3.582 8-8zm14-77c0-4.418-3.582-8-8-8h-92c-4.418 0-8 3.582-8 8s3.582 8 8 8h92c4.419 0 8-3.582 8-8z"/></svg>