<svg fill="none" height="512" viewBox="0 0 24 24" width="512" xmlns="http://www.w3.org/2000/svg"><path clip-rule="evenodd" d="m2.62861 5.67152 8.99999-3.6c.1192-.04768.2453-.07152.3714-.07152s.2522.02384.3714.07152l9 3.6c.3797.15187.6286.51957.6286.92848v3.39999l-10-4-10 4v-3.39999c0-.4089.24895-.77661.62861-.92848zm9.37139 2.32847-10 4.00001v9c0 .5523.44772 1 1 1h2v-5.2192c0-.4589.3123-.8589.75746-.9702l2-.5c.63115-.1578 1.24254.3196 1.24254.9702v5.7192h12c.5523 0 1-.4477 1-1v-9z" fill="rgb(0,0,0)" fill-rule="evenodd"/></svg>