<?xml version="1.0" encoding="utf-8"?>
<!-- Generator: Adobe Illustrator 22.1.0, SVG Export Plug-In . SVG Version: 6.00 Build 0)  -->
<svg version="1.1" id="svg2367" xmlns:svg="http://www.w3.org/2000/svg"
	 xmlns="http://www.w3.org/2000/svg" xmlns:xlink="http://www.w3.org/1999/xlink" x="0px" y="0px" viewBox="0 0 341.7 100.4"
	 style="enable-background:new 0 0 341.7 100.4;" xml:space="preserve">
<style type="text/css">
	.st0{fill:#F5C300;}
	.st1{fill:#370E62;}
	.st2{fill:#B6007D;}
</style>
<g id="g6837" transform="translate(-255.632, 350.115)">
	<path id="path5411" class="st0" d="M360.4-287.4c-0.9-2.1-2.2-4-3.5-5.7s-3-3.2-4.6-4.4c-0.9-0.6-1.8-1.1-2.8-1.6l0,0
		c-0.5-0.3-1-0.5-1.5-0.7c0.5-0.3,1-0.5,1.5-0.8c0.9-0.4,1.8-1,2.8-1.6c1.6-1.2,3.3-2.7,4.6-4.4c1.3-1.6,2.6-3.6,3.5-5.7
		c0.9-2.2,1.6-4.4,2.1-6.8c0.2-1.6,0.4-3.3,0.4-4.8c0-0.7-0.1-1.5-0.1-2.3c-0.2-2-0.6-3.9-1.3-5.9c-0.6-2-1.5-3.8-2.6-5.5
		c-1.1-1.7-2.5-3.4-3.9-4.8c-1.5-1.5-3.3-2.8-5-3.9c-2-1.1-4-2.1-6.2-2.7c-2.3-0.6-4.6-1-7-1c-2.4-0.1-4.7,0.1-6.9,0.6
		c-2.2,0.5-4.2,1.3-6.1,2.4c-2,1-3.6,2.3-5.1,3.7c-1.4,1.4-2.7,3.1-3.7,4.9c-0.9,1.9-1.6,3.8-2,5.9c-0.2,1.1-0.3,2.2-0.3,3.3
		c0,0.9,0.1,1.7,0.2,2.7c-2-1.1-3.9-2.1-5.9-2.8c-2.5-0.7-5.1-1.2-8-1.3c-2.7,0-5.2,0.2-7.6,0.8c-2.3,0.5-4.4,1.3-6.5,2.5
		c-2,1-3.8,2.3-5.5,3.7c-1.2,0.9-2.4,2.1-3.5,3.2c0,0-1.7,1.6-2.6,2.7c-0.9,1.1-1.8,2.3-2.9,3.6l-2.2,2.8c-0.6,0.8-1.2,1.5-1.9,2.3
		c-0.9,1-1.9,2.1-2.9,3.1c-1.6,1.6-3.4,3.2-5.4,4.4c-0.3,0.3-0.7,0.6-1.2,0.8c-0.2,0.2-0.5,0.3-0.8,0.5c-0.2,0.1-0.5,0.3-0.5,0.6
		c0,0.3,0.3,0.4,0.5,0.6c0.3,0.1,0.6,0.2,0.8,0.4c0.5,0.3,0.9,0.5,1.2,0.8c2.1,1.2,3.8,2.8,5.4,4.4c1,1,2,2.1,2.9,3.1
		c0.6,0.7,1.2,1.4,1.9,2.3l2.2,2.8c1,1.3,2,2.6,2.9,3.6c0.8,1,2.6,2.7,2.6,2.7c1.1,1.2,2.3,2.3,3.5,3.2c1.7,1.4,3.6,2.8,5.5,3.7
		c2.1,1.1,4.2,2,6.5,2.5c2.4,0.6,4.9,0.8,7.6,0.8c2.9-0.1,5.5-0.5,8-1.3c2-0.6,3.9-1.6,5.9-2.8c-0.1,0.9-0.2,1.7-0.2,2.7
		c0,1.1,0.1,2.2,0.3,3.3c0.3,2.1,1,4,2,5.9c1,1.9,2.3,3.5,3.7,4.9c1.5,1.4,3.2,2.8,5.1,3.7c1.9,1,3.9,1.9,6.1,2.4s4.5,0.7,6.9,0.6
		c2.4,0,4.7-0.4,7-1c2.2-0.7,4.2-1.5,6.2-2.7c1.7-1.1,3.5-2.4,5-3.9c1.4-1.4,2.8-3.1,3.9-4.8c1-1.7,2-3.6,2.6-5.5
		c0.7-2,1.1-3.9,1.3-5.9c0-0.7,0.1-1.5,0.1-2.3c0-1.5-0.2-3.2-0.4-4.8C362.1-283,361.4-285.2,360.4-287.4"/>
	<path id="path5413" class="st1" d="M354.6-285.1c-0.8-1.9-2-3.5-3.3-5c-1.2-1.4-2.9-2.8-4.5-3.8c-1.7-1-3.6-1.9-5.4-2.4
		c-2.1-0.6-4.1-0.9-6.2-0.9c-2.3,0-4.5,0.2-6.7,0.8c-1.7,0.4-3.5,1-5.1,1.8c-1.5,0.7-2.9,1.5-4.2,2.6c-1.3,0.9-2.5,1.9-3.7,2.8
		c-1.1,0.9-2.3,1.9-3.5,2.6c-1.2,0.8-2.6,1.4-3.9,2c-1.4,0.4-3,0.7-4.6,0.7c-2.1,0-4.2-0.4-6.2-1.2c-1.9-0.8-3.6-2.1-5-3.5
		c-1.4-1.4-2.6-3.3-3.4-5.1c-0.7-2-1-4-1-6c0-2.1,0.3-4.1,1-6.1c0.8-1.9,2-3.6,3.4-5.1c1.4-1.4,3.2-2.7,5-3.5c2-0.8,4.1-1.2,6.2-1.2
		c1.6,0,3.2,0.3,4.6,0.7c1.3,0.5,2.7,1.1,3.9,2c1.2,0.8,2.4,1.6,3.5,2.6c1.2,0.9,2.4,2,3.7,2.8c1.3,1,2.7,1.9,4.2,2.6
		c1.6,0.8,3.4,1.5,5.1,2c2.2,0.5,4.4,0.7,6.7,0.7c2.1,0,4.1-0.3,6.2-0.9c1.9-0.5,3.7-1.3,5.4-2.4c1.6-1,3.3-2.4,4.5-3.8
		c1.3-1.5,2.5-3.2,3.3-5c0.8-2,1.4-4,1.6-6.1c0.3-2.3,0.2-4.5-0.2-6.8c-0.4-2.1-1.1-4-2.2-6c-0.9-1.7-2.2-3.4-3.6-4.8
		c-1.4-1.3-3.1-2.6-4.8-3.5c-1.8-0.9-3.7-1.6-5.7-2c-2.2-0.4-4.2-0.6-6.4-0.3c-2.1,0.2-4,0.8-5.9,1.7c-1.7,0.9-3.4,2.1-4.7,3.5
		c-1.3,1.4-2.4,3.1-3.2,4.9c-0.7,1.7-1.2,3.7-1.3,5.7c-0.1,2.2,0.2,4.2,0.8,6.2c0,0.3,0.1,0.5,0.2,0.8c0,0.1,0.1,0.2,0.1,0.3
		c0.1,0.2,0.1,0.3,0.2,0.5c0,0,0.1,0.1,0.2,0.1c0.2,0,0.2-0.1,0.2-0.2c0.1-0.3,0.1-0.6,0.1-0.9c0.1-1,0.4-2.1,0.8-3.1
		c0.7-1.7,2-3.3,3.6-4.4c1.6-1,3.6-1.6,5.5-1.7c2.1-0.1,4.2,0.2,6.1,1.2c1.7,0.8,3.2,2.3,4.1,3.9c0.9,1.6,1.3,3.7,1.3,5.7
		c0,2.1-0.6,4-1.6,5.8c-1,1.7-2.6,3.2-4.4,4c-1.7,0.9-3.9,1.3-5.9,1.1c-1.4-0.2-2.8-0.6-4-1.1c-1.3-0.7-2.6-1.4-3.7-2.4
		c-1.2-0.9-2.5-2-3.6-3c-1.2-1-2.6-2.2-3.8-3.1c-1.4-1.1-2.9-2.1-4.3-2.9c-1.6-0.9-3.4-1.6-5.1-2.2c-2.1-0.5-4.1-0.8-6.2-0.8
		c-2.2,0-4.3,0.1-6.4,0.6c-1.7,0.4-3.5,1-5.1,2c-1.4,0.7-2.9,1.7-4.1,2.8c-1.3,1.1-2.5,2.3-3.6,3.5c-1.1,1.2-2.2,2.6-3.2,3.9
		c-0.9,1.2-2,2.6-3,3.8s-2.2,2.5-3.3,3.6c-1.1,1.2-2.4,2.3-3.7,3.1c-0.3,0.2-0.5,0.4-0.8,0.5c-0.2,0.2-0.4,0.2-0.6,0.3
		c-0.1,0.1-0.3,0.3-0.3,0.5c0,0.1,0.2,0.3,0.3,0.4c0.2,0.1,0.4,0.2,0.6,0.3c0.3,0.1,0.5,0.3,0.8,0.5c1.3,0.8,2.6,2,3.7,3.1
		c1.1,1.1,2.3,2.4,3.3,3.6c1,1.2,2.1,2.6,3,3.9c1,1.2,2.1,2.6,3.2,3.8c1.1,1.2,2.3,2.4,3.6,3.5c1.2,1,2.7,2.1,4.1,2.8
		c1.6,0.9,3.4,1.5,5.1,2c2.1,0.5,4.2,0.7,6.4,0.6c2.1,0,4.1-0.3,6.2-0.8c1.7-0.5,3.5-1.2,5.1-2.2c1.4-0.8,2.9-1.7,4.3-2.9
		c1.2-0.9,2.6-2.1,3.8-3.1c1.1-1,2.4-2.1,3.6-3c1.1-0.9,2.4-1.6,3.7-2.3c1.2-0.6,2.6-1,4-1.1c2-0.2,4.1,0.1,5.9,1
		c1.9,0.8,3.4,2.3,4.4,4s1.6,3.7,1.6,5.8c0,2-0.4,4-1.3,5.8c-0.9,1.6-2.4,3-4.1,3.8c-1.9,1-4,1.3-6.1,1.2c-2-0.1-3.9-0.7-5.5-1.7
		c-1.6-1.1-2.9-2.7-3.6-4.4c-0.4-1-0.7-2.1-0.8-3.1c0-0.3,0-0.6-0.1-0.9c0,0,0-0.2-0.2-0.2c-0.1,0-0.2,0.1-0.2,0.2
		c-0.1,0.1-0.1,0.2-0.2,0.4c0,0.1-0.1,0.2-0.1,0.3c-0.1,0.3-0.2,0.5-0.2,0.8c-0.6,2-0.9,4-0.8,6.2c0.1,2,0.6,3.9,1.3,5.7
		c0.8,1.8,1.8,3.5,3.2,4.8c1.3,1.5,3,2.7,4.7,3.6c1.9,0.9,3.8,1.5,5.9,1.7c2.2,0.3,4.2,0.2,6.4-0.3c2-0.3,3.8-1,5.7-2
		c1.7-0.9,3.4-2.2,4.8-3.5c1.4-1.4,2.7-3.1,3.6-4.8c1-2,1.7-3.9,2.2-6.1c0.4-2.2,0.5-4.4,0.2-6.7C356-281.1,355.4-283.2,354.6-285.1
		"/>
	<path id="path5415" class="st2" d="M324.7-299.8L324.7-299.8c0-0.1,0-0.2-0.1-0.2c-2.5-0.6-4.7-2-6.8-3.5c-2.2-1.5-4.2-3.3-6.5-4.8
		c-2.2-1.4-4.6-2.8-7.3-2.9c-2.2-0.2-4.3,0.3-6.2,1.3c-1.7,0.9-3.2,2.4-4.1,4.1c-1,1.7-1.5,3.8-1.5,5.9v0.1l0,0
		c0,2.1,0.5,4.1,1.5,5.9c0.9,1.7,2.4,3.2,4.1,4.1c1.9,1,4,1.5,6.2,1.4c2.7-0.2,5.1-1.5,7.3-3c2.3-1.5,4.3-3.3,6.5-4.8
		c2.1-1.5,4.3-2.9,6.8-3.5C324.7-299.7,324.7-299.8,324.7-299.8"/>
	<path id="path5417" class="st1" d="M550.7-269.1h24.7c-4.9-2.9-6.5-5.7-9.6-12.8c-17-39.4-23-53-23-53s-3.7,6.3-15.8,8.7
		c0.8,0.5,1.7,2.2,1.7,3.8c0,1-0.2,2.5-1,4.3L511.5-282c-3.4,7.6-5.4,10.9-10.2,12.5c-3.7-2.2-4.5-4.2-4.5-11.8v-37.3
		c0-7.8,0.8-9.9,4.8-12.1h-22c4,2.3,4.8,4.2,4.8,12.1v12.7h-30.6v-12.7c0-7.9,0.7-9.9,4.8-12.1h-22.1c4.1,2.3,4.8,4.2,4.8,12.1v37.3
		c0,7.9-0.7,9.9-4.8,12.1h22.1c-4.1-2.3-4.8-4.2-4.8-12.1v-16h30.6v16c0,7.8-0.8,9.9-4.9,12.1h43.6c-2.2-1.2-3.8-3-3.8-5.3
		c0-1.6,0.6-2.8,2-6l3.5-8.2h24.4l3.7,9.2c1,2.5,1.4,3.5,1.4,5C554.2-272.1,552.3-270.2,550.7-269.1z M527.9-296.2l9.2-22.1
		l8.9,22.1H527.9"/>
	<path id="path5419" class="st1" d="M592.6-281.2v-37.3c0-7.9,0.8-9.8,4.7-12.1h-21.9c4,2.4,4.7,4.2,4.7,12.1v37.3
		c0,7.9-0.7,9.8-4.7,12.1h21.9C593.4-271.5,592.6-273.3,592.6-281.2"/>
	<path id="path5421" class="st1" d="M434.6-334.9L434.6-334.9c-2.3,1.8-5.9,4.2-15.6,4.2h-27.5c-5.4,0-7.6-3.2-8.6-5.1
		c-2.1,4.7-7.4,11.4-10.7,14.2H398c0,0.9,0,2,0,3.1v36.6c0,7.9-1,10.4-4.9,12.8h22.1c-4-2.4-4.7-4.2-4.7-12.1v-37.3
		c0-1.1-0.1-1.8-0.1-3.1h3.8c5.4,0,8.3-0.6,10.6-1.4C430.6-325.2,434.2-329.4,434.6-334.9L434.6-334.9L434.6-334.9"/>
</g>
</svg>
