<svg xmlns="http://www.w3.org/2000/svg" width="55" height="55"><defs><clipPath id="a"><path d="M0 0h55v55H0z"/></clipPath></defs><g data-name="Group 12917" clip-path="url(#a)"><path data-name="Path 53354" d="M42.888 9.14H13.112A1.112 1.112 0 0 0 12 10.252v20.843a10.577 10.577 0 0 0 2.563 6.481 26.485 26.485 0 0 0 5.341 4.947 47.883 47.883 0 0 0 7.642 4.475 1.109 1.109 0 0 0 .909 0 47.877 47.877 0 0 0 7.642-4.475 26.5 26.5 0 0 0 5.341-4.947 10.58 10.58 0 0 0 2.563-6.481V10.252a1.112 1.112 0 0 0-1.113-1.112Zm-1.114 21.955c0 3.77-3.783 7.3-6.956 9.606a47.078 47.078 0 0 1-6.821 4.053 46.986 46.986 0 0 1-6.792-4.033c-3.186-2.306-6.984-5.848-6.984-9.627v-19.73h27.553Zm0 0" fill="#2a67ac"/><path data-name="Path 53355" d="M29.191 26.414h-2.382a2.461 2.461 0 0 1 0-4.922h4.764a1.112 1.112 0 1 0 0-2.224h-2.461v-2.461a1.112 1.112 0 0 0-2.224 0v2.461h-.079a4.685 4.685 0 0 0 0 9.37h2.382a2.461 2.461 0 0 1 0 4.922h-4.764a1.112 1.112 0 1 0 0 2.224h2.461v2.461a1.112 1.112 0 1 0 2.224 0v-2.461h.079a4.685 4.685 0 0 0 0-9.37Zm0 0" fill="#56c5e8"/></g></svg>
