<svg xmlns="http://www.w3.org/2000/svg" width="55" height="55"><defs><clipPath id="a"><path d="M0 0h55v55H0z"/></clipPath></defs><g data-name="Group 12912" clip-path="url(#a)"><g data-name="Group 12911"><path data-name="Path 53339" d="M48.993 14.359a3.247 3.247 0 0 0-2.224-1.147l-30.657-2.56a3.27 3.27 0 0 0-3.53 2.976l-.617 5.787H9.502a3.273 3.273 0 0 0-3.27 3.27v19.191a3.273 3.273 0 0 0 3.27 3.27h30.764a3.274 3.274 0 0 0 3.27-3.27v-3.113l1.092.091c.092.007.183.011.275.011a3.274 3.274 0 0 0 3.256-3l1.6-19.124a3.248 3.248 0 0 0-.762-2.384ZM9.502 21.117h30.764a1.571 1.571 0 0 1 1.57 1.569v1.749H7.932v-1.749a1.571 1.571 0 0 1 1.569-1.569Zm-1.569 5.018h33.9v3.527H7.932Zm32.333 17.311H9.502a1.571 1.571 0 0 1-1.569-1.569V31.362h33.9v10.514a1.571 1.571 0 0 1-1.57 1.569Zm7.794-26.844-1.6 19.125a1.571 1.571 0 0 1-1.694 1.433l-1.233-.1V22.685a3.274 3.274 0 0 0-3.27-3.27H13.675l.6-5.615v-.02a1.571 1.571 0 0 1 1.694-1.433l30.658 2.56a1.57 1.57 0 0 1 1.433 1.694Zm0 0" fill="#0067b1"/></g><path data-name="Path 53340" d="M38.276 33.892h-8.183a.85.85 0 0 0-.85.85v5.339a.85.85 0 0 0 .85.85h8.183a.85.85 0 0 0 .85-.85v-5.339a.85.85 0 0 0-.85-.85Zm-.85 5.339h-6.482v-3.639h6.482Zm0 0" fill="#5bc2e7"/></g></svg>
