<svg xmlns="http://www.w3.org/2000/svg" width="55" height="55"><defs><clipPath id="a"><path d="M0 0h55v55H0z"/></clipPath></defs><g data-name="Group 12914" stroke="#fff" clip-path="url(#a)"><path data-name="Path 53348" d="M46.822 36.781a1.5 1.5 0 0 0-2.028.633 19.172 19.172 0 0 1-36.161-8.843l1.206 1.205a1.503 1.503 0 0 0 2.125-2.125l-3.769-3.769a1.5 1.5 0 0 0-2.125 0l-3.769 3.769a1.503 1.503 0 0 0 2.125 2.125l1.2-1.2a22.176 22.176 0 0 0 41.827 10.235 1.5 1.5 0 0 0-.631-2.03Z" fill="#0067b1"/><path data-name="Path 53349" d="M52.7 26.012a1.5 1.5 0 0 0-2.125 0l-1.2 1.2A22.176 22.176 0 0 0 7.548 16.977a1.502 1.502 0 1 0 2.661 1.394 19.172 19.172 0 0 1 36.161 8.843l-1.206-1.205a1.503 1.503 0 0 0-2.125 2.125l3.766 3.772a1.5 1.5 0 0 0 2.125 0l3.769-3.769a1.5 1.5 0 0 0 .001-2.125Z" fill="#0067b1"/><path data-name="Path 53350" d="M28.218 34.036h-5.492a1.569 1.569 0 1 0 0 3.138h3.138v1.569a1.569 1.569 0 0 0 3.138 0v-1.626a5.491 5.491 0 0 0-.785-10.926h-1.569a2.354 2.354 0 1 1 0-4.707h5.492a1.569 1.569 0 0 0 0-3.138h-3.138v-1.569a1.569 1.569 0 0 0-3.138 0v1.63a5.491 5.491 0 0 0 .785 10.926h1.569a2.354 2.354 0 0 1 0 4.707Z" fill="#5bc2e7"/></g></svg>
