<svg xmlns="http://www.w3.org/2000/svg" width="55" height="55"><defs><clipPath id="a"><path d="M0 0h55v55H0z"/></clipPath></defs><g data-name="Group 12916" clip-path="url(#a)"><g data-name="Group 12915"><path data-name="Path 53351" d="M26.29 46H7.876a.877.877 0 0 1-.851-1.087l.945-3.8a5.6 5.6 0 0 1 3.692-3.98l7.033-2.344c1.044-.436 1.694-2.008 1.761-4.325-.805-.732-2.533-2.517-2.533-4.348 0-.643-.215-.774-.217-.776a.727.727 0 0 1-.509-.494 11.973 11.973 0 0 1-.849-3.494.84.84 0 0 1 .026-.208 2.033 2.033 0 0 1 .777-1.185c.01-.21.023-.443.037-.7.044-.864.1-2.018.1-3.453 0-3.284 4.016-8.314 8.962-8.314 4.475 0 6.643 2.384 7 3.924 1.094.605 2.048 1.605 2.048 4.39v4.161a2.3 2.3 0 0 1 .814 1.11.873.873 0 0 1 .044.278.906.906 0 0 1-.875.91.849.849 0 0 1-.865-.709.535.535 0 0 0-.1-.144.765.765 0 0 1-.767-.845v-4.761c0-2.284-.733-2.654-1.171-2.873a1.236 1.236 0 0 1-.823-1.083c-.032-.527-1.505-2.608-5.3-2.608-4.166 0-7.212 4.317-7.212 6.564a61.43 61.43 0 0 1-.11 3.544c-.024.506-.047.914-.047 1.217a.877.877 0 0 1-.786.872 9.986 9.986 0 0 0 .616 2.471 2.56 2.56 0 0 1 .957 2.205c0 .988 1.152 2.393 2.223 3.282a.878.878 0 0 1 .315.674c0 3.323-1.031 5.58-2.9 6.358l-7.094 2.368a3.864 3.864 0 0 0-2.545 2.744L9 44.249h17.29a.875.875 0 1 1 0 1.75Zm0 0" fill="#0067b1"/></g><path data-name="Path 53352" d="M38.505 49.5a.845.845 0 0 1-.34-.07c-.416-.173-10.163-4.386-10.163-12.995V29.12a.877.877 0 0 1 .6-.829l9.627-3.251a.877.877 0 0 1 .56 0l9.627 3.251a.874.874 0 0 1 .6.829v7.315c0 8.609-9.746 12.822-10.163 13a.874.874 0 0 1-.34.068Zm-8.75-19.75v6.686c0 6.626 7.1 10.429 8.752 11.227 1.652-.8 8.752-4.617 8.752-11.227V29.75l-8.752-2.955Zm0 0" fill="#0067b1"/><path data-name="Path 53353" d="M37.633 40.749a.41.41 0 0 1-.047 0 .874.874 0 0 1-.635-.327l-3.5-4.376a.875.875 0 1 1 1.367-1.094l2.888 3.613 5.435-5.435a.875.875 0 0 1 1.238 1.237l-6.129 6.124a.864.864 0 0 1-.618.257Zm0 0" fill="#5bc2e7"/></g></svg>
