<svg xmlns="http://www.w3.org/2000/svg" width="55" height="55"><defs><clipPath id="a"><path d="M0 0h55v55H0z"/></clipPath></defs><g data-name="Premier Banking Icon" clip-path="url(#a)"><g data-name="Group 13212"><g data-name="Group 12920"><g data-name="Group 12919"><g data-name="Group 12918" fill="#0067b1"><path data-name="Path 53356" d="M25.268 44.252a17.881 17.881 0 0 1-13.614-26.017 6.859 6.859 0 0 0-3.2-11.35 1.076 1.076 0 0 0-1.04.279 6.857 6.857 0 0 0 1.867 11.025 19.835 19.835 0 0 0-1.012 2.736 6.773 6.773 0 0 0-.655-.761 6.885 6.885 0 0 0-6.626-1.775 1.074 1.074 0 0 0-.761.761 6.857 6.857 0 0 0 6.637 8.633c.215 0 .432-.011.647-.031A19.941 19.941 0 0 0 8 31.086 6.845 6.845 0 0 0 .425 32.53a1.074 1.074 0 0 0-.278 1.04 6.884 6.884 0 0 0 4.85 4.85 6.805 6.805 0 0 0 1.764.232 6.906 6.906 0 0 0 3.941-1.239 20.177 20.177 0 0 0 2.21 2.816 6.889 6.889 0 0 0-5.574 3.419 1.074 1.074 0 0 0 0 1.076 6.86 6.86 0 0 0 11.867.024 19.871 19.871 0 0 0 5.794 1.636 1.09 1.09 0 0 0 .134.008 1.074 1.074 0 0 0 .131-2.141Zm-19.71-7.908a4.731 4.731 0 0 1-3.12-2.719 4.709 4.709 0 0 1 7.183 1.925 4.73 4.73 0 0 1-4.062.794Zm2.16-23.109a2.3 2.3 0 1 1 2.72 3.12 4.731 4.731 0 0 1-2.72-3.12ZM3.526 24.257a2.3 2.3 0 1 1 3.916 1.342 4.733 4.733 0 0 1-3.916-1.342Zm9.757 21.748a4.731 4.731 0 0 1-3.718-1.82 4.709 4.709 0 0 1 7.436 0 4.729 4.729 0 0 1-3.718 1.82Zm0 0"/><path data-name="Path 53357" d="M47.943 30.754a6.783 6.783 0 0 0-.948.332 19.959 19.959 0 0 0 .489-3.335q.324.031.647.031a6.856 6.856 0 0 0 6.637-8.636 1.073 1.073 0 0 0-.761-.761 6.886 6.886 0 0 0-6.626 1.775 6.784 6.784 0 0 0-.655.76 19.957 19.957 0 0 0-1.013-2.736A6.857 6.857 0 0 0 47.58 7.159a1.073 1.073 0 0 0-1.04-.279 6.859 6.859 0 0 0-3.2 11.349 17.881 17.881 0 0 1-13.614 26.017 1.074 1.074 0 1 0 .265 2.132 19.883 19.883 0 0 0 5.794-1.637 6.86 6.86 0 0 0 11.868-.025 1.075 1.075 0 0 0 0-1.076 6.888 6.888 0 0 0-5.573-3.419 20.217 20.217 0 0 0 2.209-2.817 6.9 6.9 0 0 0 3.941 1.24 6.81 6.81 0 0 0 1.764-.232 6.885 6.885 0 0 0 4.851-4.85 1.076 1.076 0 0 0-.279-1.04 6.888 6.888 0 0 0-6.627-1.775Zm.957-9.071a2.3 2.3 0 1 1-1.342 3.915 4.73 4.73 0 0 1 1.342-3.915Zm-5.134-9.391a2.3 2.3 0 1 1 .8 4.063 4.731 4.731 0 0 1-.8-4.063Zm1.667 31.893a4.708 4.708 0 0 1-7.436 0 4.709 4.709 0 0 1 7.436 0Zm4.007-7.841a4.73 4.73 0 0 1-4.062-.795 4.709 4.709 0 0 1 7.183-1.925 4.729 4.729 0 0 1-3.12 2.719Zm0 0"/></g></g></g><path data-name="Path 53383" d="M28.732 26.114h-2.461a2.543 2.543 0 0 1 0-5.086h4.922a1.15 1.15 0 1 0 0-2.3h-2.542v-2.543a1.15 1.15 0 0 0-2.3 0v2.543h-.082a4.841 4.841 0 0 0 0 9.681h2.461a2.543 2.543 0 0 1 0 5.085h-4.922a1.15 1.15 0 1 0 0 2.3h2.542v2.543a1.15 1.15 0 1 0 2.3 0v-2.543h.082a4.84 4.84 0 0 0 0-9.68Zm0 0" fill="#56c5e8"/></g></g></svg>
