<svg xmlns="http://www.w3.org/2000/svg" width="55" height="55"><defs><clipPath id="a"><path d="M0 0h55v55H0z"/></clipPath></defs><g data-name="Group 12913" clip-path="url(#a)"><path data-name="Path 53341" d="M38.37 46.233a.954.954 0 0 1-.953-.953v-1.907a.954.954 0 0 1 1.907 0v1.907a.954.954 0 0 1-.954.953Zm0 0" fill="#0067b1"/><path data-name="Path 53342" d="M38.848 44.325h-3.337a.954.954 0 1 1 0-1.907h3.337a1.43 1.43 0 0 0 0-2.86h-.953a3.337 3.337 0 1 1 0-6.674h3.337a.954.954 0 1 1 0 1.907h-3.337a1.43 1.43 0 0 0 0 2.86h.953a3.337 3.337 0 1 1 0 6.674Zm0 0" fill="#0067b1"/><path data-name="Path 53343" d="M38.37 34.791a.954.954 0 0 1-.953-.953v-1.907a.954.954 0 0 1 1.907 0v1.907a.954.954 0 0 1-.954.953Zm0 0" fill="#0067b1"/><path data-name="Path 53344" d="M38.371 51a12.395 12.395 0 1 1 12.395-12.395A12.409 12.409 0 0 1 38.371 51Zm0-22.883a10.488 10.488 0 1 0 10.488 10.488 10.5 10.5 0 0 0-10.488-10.488Zm0 0" fill="#0067b1"/><path data-name="Path 53345" d="M21.209 45.279H9.767A4.774 4.774 0 0 1 5 40.512v-30.51a4.774 4.774 0 0 1 4.767-4.768h20.976a4.774 4.774 0 0 1 4.767 4.767v11.441a.954.954 0 0 1-1.907 0V10.001a2.864 2.864 0 0 0-2.86-2.86H9.767a2.864 2.864 0 0 0-2.86 2.86v30.51a2.864 2.864 0 0 0 2.86 2.86h11.441a.954.954 0 1 1 0 1.907Zm0 0" fill="#0067b1"/><path data-name="Path 53346" d="M11.674 30.024a.953.953 0 0 1-.675-1.627l4.767-4.767a.947.947 0 0 1 1.1-.179l3.2 1.6 6.188-6.188a.953.953 0 0 1 1.348 1.348l-6.674 6.674a.956.956 0 0 1-1.1.179l-3.2-1.6-4.281 4.281a.95.95 0 0 1-.673.278Zm0 0" fill="#5bc2e7"/><path data-name="Path 53347" d="M26.929 26.21a.954.954 0 0 1-.953-.953V20.49h-4.767a.954.954 0 1 1 0-1.907h5.721a.954.954 0 0 1 .953.953v5.721a.954.954 0 0 1-.953.953Zm0 0" fill="#5bc2e7"/></g></svg>
