<svg width="45" height="45" fill="none" xmlns="http://www.w3.org/2000/svg"><path d="M10.542 3.816c-1.644 0-2.99 1.356-2.99 3.013V38.17c0 1.658 1.346 3.014 2.99 3.014h23.916c1.644 0 2.99-1.356 2.99-3.014V14.062a.606.606 0 0 0-.176-.426l-9.566-9.644a.595.595 0 0 0-.423-.176h-16.74Zm0 1.205h16.143v6.63c0 1.657 1.346 3.014 2.99 3.014h6.577V38.17a1.792 1.792 0 0 1-1.794 1.809H10.542A1.792 1.792 0 0 1 8.75 38.17V6.83c0-1.006.796-1.809 1.793-1.809Zm17.34.852 7.524 7.586h-5.731a1.792 1.792 0 0 1-1.794-1.808V5.873Z" fill="#0067B1" stroke="#0067B1" stroke-width=".133"/><circle cx="15.646" cy="20.092" r=".833" fill="#5BC2E7"/><path fill="#5BC2E7" d="M17.813 19.491H28.48v1.201H17.813z"/><circle cx="15.646" cy="23.758" r=".833" fill="#5BC2E7"/><path fill="#5BC2E7" d="M17.813 23.158H28.48v1.201H17.813z"/><circle cx="15.646" cy="27.425" r=".833" fill="#5BC2E7"/><path fill="#5BC2E7" d="M17.813 26.825H28.48v1.201H17.813z"/></svg>
